# Blender 4.2.3 LTS
# www.blender.org
o Cylinder
v -0.000000 0.000000 -0.045000
v -0.000000 0.450000 -0.045000
v 0.008779 0.000000 -0.044135
v 0.008779 0.450000 -0.044135
v 0.017221 0.000000 -0.041575
v 0.017221 0.450000 -0.041575
v 0.025001 0.000000 -0.037416
v 0.025001 0.450000 -0.037416
v 0.031820 0.000000 -0.031820
v 0.031820 0.450000 -0.031820
v 0.037416 0.000000 -0.025001
v 0.037416 0.450000 -0.025001
v 0.041575 -0.000000 -0.017221
v 0.041575 0.450000 -0.017221
v 0.044135 -0.000000 -0.008779
v 0.044135 0.450000 -0.008779
v 0.045000 -0.000000 -0.000000
v 0.045000 0.450000 0.000000
v 0.044135 0.000000 0.008779
v 0.044135 0.450000 0.008779
v 0.041575 -0.000000 0.017221
v 0.041575 0.450000 0.017221
v 0.037416 -0.000000 0.025001
v 0.037416 0.450000 0.025001
v 0.031820 -0.000000 0.031820
v 0.031820 0.450000 0.031820
v 0.025001 -0.000000 0.037416
v 0.025001 0.450000 0.037416
v 0.017221 -0.000000 0.041575
v 0.017221 0.450000 0.041575
v 0.008779 -0.000000 0.044135
v 0.008779 0.450000 0.044135
v -0.000000 -0.000000 0.045000
v -0.000000 0.450000 0.045000
v -0.008779 -0.000000 0.044135
v -0.008779 0.450000 0.044135
v -0.017221 -0.000000 0.041575
v -0.017221 0.450000 0.041575
v -0.025001 -0.000000 0.037416
v -0.025001 0.450000 0.037416
v -0.031820 -0.000000 0.031820
v -0.031820 0.450000 0.031820
v -0.037416 -0.000000 0.025001
v -0.037416 0.450000 0.025001
v -0.041575 -0.000000 0.017221
v -0.041575 0.450000 0.017221
v -0.044135 0.000000 0.008779
v -0.044135 0.450000 0.008779
v -0.045000 -0.000000 -0.000000
v -0.045000 0.450000 0.000000
v -0.044135 -0.000000 -0.008779
v -0.044135 0.450000 -0.008779
v -0.041575 -0.000000 -0.017221
v -0.041575 0.450000 -0.017221
v -0.037416 0.000000 -0.025001
v -0.037416 0.450000 -0.025001
v -0.031820 0.000000 -0.031820
v -0.031820 0.450000 -0.031820
v -0.025001 0.000000 -0.037416
v -0.025001 0.450000 -0.037416
v -0.017221 0.000000 -0.041575
v -0.017221 0.450000 -0.041575
v -0.008779 0.000000 -0.044135
v -0.008779 0.450000 -0.044135
v 0.000000 0.450000 -0.090000
v 0.017558 0.450000 -0.088271
v 0.034442 0.450000 -0.083149
v 0.050001 0.450000 -0.074832
v 0.063640 0.450000 -0.063640
v 0.074832 0.450000 -0.050001
v 0.083149 0.450000 -0.034442
v 0.088271 0.450000 -0.017558
v 0.090000 0.450000 0.000000
v 0.088271 0.450000 0.017558
v 0.083149 0.450000 0.034442
v 0.074832 0.450000 0.050001
v 0.063640 0.450000 0.063640
v 0.050001 0.450000 0.074832
v 0.034442 0.450000 0.083149
v 0.017558 0.450000 0.088271
v 0.000000 0.450000 0.090000
v -0.017558 0.450000 0.088271
v -0.034442 0.450000 0.083149
v -0.050001 0.450000 0.074832
v -0.063640 0.450000 0.063640
v -0.074832 0.450000 0.050001
v -0.083149 0.450000 0.034442
v -0.088271 0.450000 0.017558
v -0.090000 0.450000 0.000000
v -0.088271 0.450000 -0.017558
v -0.083149 0.450000 -0.034442
v -0.074832 0.450000 -0.050001
v -0.063640 0.450000 -0.063640
v -0.050001 0.450000 -0.074832
v -0.034442 0.450000 -0.083149
v -0.017558 0.450000 -0.088271
v 0.000000 0.650000 0.000000
s 0
f 1 2 4 3
f 3 4 6 5
f 5 6 8 7
f 7 8 10 9
f 9 10 12 11
f 11 12 14 13
f 13 14 16 15
f 15 16 18 17
f 17 18 20 19
f 19 20 22 21
f 21 22 24 23
f 23 24 26 25
f 25 26 28 27
f 27 28 30 29
f 29 30 32 31
f 31 32 34 33
f 33 34 36 35
f 35 36 38 37
f 37 38 40 39
f 39 40 42 41
f 41 42 44 43
f 43 44 46 45
f 45 46 48 47
f 47 48 50 49
f 49 50 52 51
f 51 52 54 53
f 53 54 56 55
f 55 56 58 57
f 57 58 60 59
f 59 60 62 61
f 18 16 72 73
f 61 62 64 63
f 63 64 2 1
f 1 3 5 7 9 11 13 15 17 19 21 23 25 27 29 31 33 35 37 39 41 43 45 47 49 51 53 55 57 59 61 63
f 73 72 97
f 36 34 81 82
f 54 52 90 91
f 10 8 68 69
f 28 26 77 78
f 46 44 86 87
f 64 62 95 96
f 20 18 73 74
f 38 36 82 83
f 56 54 91 92
f 12 10 69 70
f 30 28 78 79
f 4 2 65 66
f 48 46 87 88
f 2 64 96 65
f 22 20 74 75
f 40 38 83 84
f 58 56 92 93
f 14 12 70 71
f 32 30 79 80
f 50 48 88 89
f 6 4 66 67
f 24 22 75 76
f 42 40 84 85
f 60 58 93 94
f 16 14 71 72
f 34 32 80 81
f 52 50 89 90
f 8 6 67 68
f 26 24 76 77
f 44 42 85 86
f 62 60 94 95
f 87 86 97
f 74 73 97
f 88 87 97
f 75 74 97
f 89 88 97
f 76 75 97
f 90 89 97
f 77 76 97
f 91 90 97
f 78 77 97
f 92 91 97
f 79 78 97
f 66 65 97
f 93 92 97
f 80 79 97
f 67 66 97
f 94 93 97
f 81 80 97
f 68 67 97
f 95 94 97
f 82 81 97
f 69 68 97
f 96 95 97
f 83 82 97
f 70 69 97
f 65 96 97
f 84 83 97
f 71 70 97
f 85 84 97
f 72 71 97
f 86 85 97
